<svg width="40" height="40" viewBox="0 0 40 40" fill="none" xmlns="http://www.w3.org/2000/svg">
<circle cx="20" cy="20" r="20" fill="#EB722E"/>
<path fill-rule="evenodd" clip-rule="evenodd" d="M19.5655 12.7146C18.9688 12.7153 18.3968 12.9527 17.9748 13.3746C17.5529 13.7965 17.3156 14.3686 17.3149 14.9653C17.3149 16.2053 18.3242 17.2146 19.5655 17.2146C20.162 17.2139 20.7339 16.9768 21.1557 16.5551C21.5776 16.1335 21.8151 15.5618 21.8162 14.9653C21.8155 14.3686 21.5781 13.7965 21.1562 13.3746C20.7343 12.9527 20.1622 12.7153 19.5655 12.7146ZM19.5655 20.3986C18.1248 20.3972 16.7435 19.8244 15.7247 18.8058C14.7058 17.7872 14.1326 16.406 14.1309 14.9653C14.1319 13.5241 14.7048 12.1423 15.7237 11.1231C16.7427 10.1039 18.1244 9.53071 19.5655 9.5293C21.0069 9.53036 22.389 10.1034 23.4082 11.1226C24.4274 12.1419 25.0005 13.5239 25.0015 14.9653C24.9998 16.4062 24.4264 17.7876 23.4073 18.8062C22.3881 19.8249 21.0065 20.3976 19.5655 20.3986ZM17.3669 24.832C16.2488 24.5773 15.1817 24.1355 14.2109 23.5253C13.8534 23.3004 13.5998 22.9427 13.5061 22.5309C13.4123 22.119 13.486 21.6868 13.7109 21.3293C13.9358 20.9718 14.2935 20.7183 14.7053 20.6245C15.1171 20.5307 15.5494 20.6044 15.9069 20.8293C17.004 21.5156 18.2721 21.8796 19.5662 21.8796C20.8603 21.8796 22.1284 21.5156 23.2255 20.8293C23.583 20.6044 24.0153 20.5307 24.4271 20.6245C24.8389 20.7183 25.1966 20.9718 25.4215 21.3293C25.6464 21.6868 25.7201 22.119 25.6263 22.5309C25.5326 22.9427 25.279 23.3004 24.9215 23.5253C23.9505 24.1352 22.8835 24.577 21.7655 24.832L24.8042 27.872C24.952 28.0199 25.0692 28.1955 25.1491 28.3888C25.229 28.582 25.2701 28.7891 25.2699 28.9982C25.2698 29.2074 25.2285 29.4144 25.1484 29.6076C25.0682 29.8007 24.9508 29.9762 24.8029 30.124C24.6549 30.2717 24.4793 30.3889 24.286 30.4688C24.0928 30.5488 23.8857 30.5898 23.6766 30.5897C23.4675 30.5896 23.2604 30.5483 23.0673 30.4681C22.8741 30.388 22.6986 30.2706 22.5509 30.1226L19.5669 27.136L16.5802 30.1226C16.2816 30.4213 15.8765 30.589 15.4542 30.589C15.0319 30.589 14.6268 30.4213 14.3282 30.1226C14.0296 29.824 13.8618 29.419 13.8618 28.9966C13.8618 28.5743 14.0296 28.1693 14.3282 27.8706L17.3669 24.832Z" fill="white"/>
</svg>
