<svg width="40" height="40" viewBox="0 0 40 40" fill="none" xmlns="http://www.w3.org/2000/svg">
<circle cx="20" cy="20" r="20" fill="#64A9DC"/>
<path fill-rule="evenodd" clip-rule="evenodd" d="M27.8933 12.1189L8.99592 19.4069C7.70659 19.9242 7.71326 20.6442 8.76126 20.9642L13.4733 22.4362L15.2773 27.9642C15.4959 28.5695 15.3879 28.8095 16.0239 28.8095C16.5146 28.8095 16.7306 28.5855 17.0053 28.3189C17.1786 28.1495 18.2093 27.1455 19.3613 26.0269L24.2639 29.6495C25.1653 30.1469 25.8173 29.8895 26.0413 28.8122L29.2599 13.6469C29.5893 12.3269 28.7559 11.7269 27.8933 12.1189ZM14.2133 22.0975L24.8359 15.3962C25.3666 15.0735 25.8533 15.2469 25.4533 15.6015L16.3573 23.8082L16.0039 27.5855L14.2133 22.0975Z" fill="white"/>
</svg>
