<svg width="40" height="40" viewBox="0 0 40 40" fill="none" xmlns="http://www.w3.org/2000/svg">
<circle cx="20" cy="20" r="20" fill="#65BC54"/>
<path fill-rule="evenodd" clip-rule="evenodd" d="M30.6668 19.7255C30.6668 25.4642 25.9775 30.1175 20.1935 30.1175C18.4243 30.1199 16.6833 29.675 15.1322 28.8242L9.3335 30.6668L11.2242 25.0908C10.2392 23.4747 9.7192 21.6181 9.7215 19.7255C9.72016 13.9855 14.4095 9.3335 20.1935 9.3335C25.9775 9.3335 30.6668 13.9868 30.6668 19.7255ZM20.1935 10.9882C15.3388 10.9882 11.3895 14.9082 11.3895 19.7255C11.388 21.5682 11.9757 23.3632 13.0668 24.8482L11.9668 28.0922L15.3495 27.0175C16.7881 27.9626 18.4722 28.4652 20.1935 28.4628C25.0495 28.4628 28.9988 24.5428 28.9988 19.7255C28.9988 14.9082 25.0495 10.9882 20.1935 10.9882ZM25.4828 22.1188C25.4175 22.0122 25.2468 21.9482 24.9895 21.8215C24.7335 21.6948 23.4708 21.0775 23.2362 20.9935C23.0002 20.9082 22.8295 20.8655 22.6575 21.1202C22.4012 21.4649 22.1299 21.7981 21.8442 22.1188C21.6948 22.2895 21.5455 22.3095 21.2895 22.1828C21.0322 22.0548 20.2055 21.7868 19.2242 20.9188C18.6639 20.4047 18.1831 19.8102 17.7975 19.1548C17.6468 18.9002 17.7802 18.7615 17.9095 18.6348C18.0242 18.5202 18.1655 18.3375 18.2948 18.1895C18.4228 18.0402 18.4655 17.9348 18.5508 17.7642C18.6362 17.5935 18.5935 17.4455 18.5295 17.3175C18.4655 17.1908 17.9522 15.9375 17.7375 15.4268C17.5242 14.9175 17.3108 15.0028 17.1602 15.0028C17.0108 15.0028 16.8402 14.9815 16.6682 14.9815C16.5384 14.9849 16.4107 15.0149 16.293 15.0697C16.1754 15.1246 16.0702 15.203 15.9842 15.3002C15.7482 15.5535 15.0855 16.1708 15.0855 17.4242C15.0855 18.6775 16.0055 19.8882 16.1335 20.0588C16.2615 20.2282 17.9095 22.8842 20.5188 23.9042C23.1295 24.9228 23.1295 24.5842 23.5988 24.5402C24.0695 24.4988 25.1188 23.9255 25.3322 23.3295C25.5455 22.7348 25.5455 22.2242 25.4828 22.1188Z" fill="white"/>
</svg>
