<svg width="40" height="40" viewBox="0 0 40 40" fill="none" xmlns="http://www.w3.org/2000/svg">
<circle cx="20" cy="20" r="20" fill="#03CECE"/>
<path d="M31.5237 19.2199L15.6304 10.1812C15.487 10.1005 15.3249 10.0589 15.1604 10.0606C14.9959 10.0623 14.8347 10.1074 14.6931 10.1911C14.5514 10.2749 14.4344 10.3945 14.3536 10.5379C14.2729 10.6812 14.2313 10.8433 14.233 11.0079V13.4425C14.233 13.4425 19.5144 15.4985 19.945 15.6585C20.1003 15.6948 20.2352 15.7906 20.3207 15.9252C20.4062 16.0598 20.4355 16.2226 20.4024 16.3785C20.325 16.5705 20.1624 16.5492 19.6917 16.4345C19.2224 16.3212 12.3517 14.6105 12.3517 14.6105C12.2026 14.5746 12.0465 14.5809 11.9007 14.6287C11.755 14.6765 11.6254 14.7638 11.5265 14.881C11.4276 14.9982 11.3632 15.1406 11.3406 15.2923C11.318 15.4439 11.338 15.5989 11.3984 15.7399L12.8344 19.1572C12.8344 19.1572 22.0997 19.5439 22.433 19.5639C22.7624 19.5839 22.957 19.7425 22.9624 19.9999C22.957 20.2585 22.7624 20.4159 22.433 20.4359C22.0997 20.4545 12.8344 20.8425 12.8344 20.8425L11.3997 24.2612C11.3397 24.4021 11.3199 24.5569 11.3427 24.7084C11.3655 24.8598 11.4299 25.002 11.5288 25.119C11.6277 25.236 11.7571 25.3232 11.9026 25.3709C12.0482 25.4186 12.2041 25.4249 12.353 25.3892C12.353 25.3892 19.2237 23.6785 19.693 23.5652C20.1637 23.4505 20.3264 23.4292 20.4037 23.6212C20.4369 23.7772 20.4075 23.94 20.322 24.0746C20.2365 24.2092 20.1017 24.3049 19.9464 24.3412C19.5157 24.5012 14.2344 26.5585 14.2344 26.5585V28.9919C14.2326 29.1564 14.2742 29.3185 14.355 29.4619C14.4357 29.6052 14.5528 29.7248 14.6944 29.8086C14.836 29.8924 14.9972 29.9374 15.1617 29.9392C15.3263 29.9409 15.4884 29.8993 15.6317 29.8185L31.525 20.7785C31.668 20.7046 31.7878 20.5928 31.8715 20.4554C31.9552 20.3179 31.9994 20.1601 31.9994 19.9992C31.9994 19.8383 31.9552 19.6805 31.8715 19.543C31.7878 19.4056 31.668 19.2938 31.525 19.2199H31.5237Z" fill="white"/>
</svg>
